<svg xmlns="http://www.w3.org/2000/svg" xmlns:xlink="http://www.w3.org/1999/xlink" xml:space="preserve" id="svg1" width="1910" height="1000" viewBox="0 0 505.354 264.583"><defs id="defs1"><clipPath id="clip-10-3"><path id="path2450" d="M837 747h43v43h-43zm0 0" clip-rule="nonzero"/></clipPath><clipPath id="clip-11-6"><path id="path2453" d="m879.465 777.742-42.45 11.926s3.18-29.586 38.676-41.77zm0 0" clip-rule="nonzero"/></clipPath><clipPath id="clip-12-7"><path id="path2456" d="M929 750h131v56H929Zm0 0" clip-rule="nonzero"/></clipPath><clipPath id="clip-13-5"><path id="path2459" d="M929.25 750.969c7.867 27.793 31.125 48.492 59.613 53.047 49.07 8.152 70.985-16.871 70.985-16.871zm0 0" clip-rule="nonzero"/></clipPath><clipPath id="clip-15-5"><path id="path2465" d="M929.25 750.969c7.867 27.793 31.125 48.492 59.613 53.047 49.07 8.152 70.985-16.871 70.985-16.871zm0 0" clip-rule="nonzero"/></clipPath><clipPath id="clip-16-6"><path id="path2468" d="M1031 703h75v40h-75zm0 0" clip-rule="nonzero"/></clipPath><clipPath id="clip-17-2"><path id="path2471" d="m1105.04 742.867-73.454-21.332s15.953-27.457 49.695-14.91c21.77 8.094 23.758 36.242 23.758 36.242m0 0" clip-rule="nonzero"/></clipPath><clipPath id="clip-18-9"><path id="path2474" d="M918 669h74v41h-74zm0 0" clip-rule="nonzero"/></clipPath><clipPath id="clip-19-1"><path id="path2477" d="m918.031 687.383 73.27 21.945s1.46-31.73-33.688-39.504c-22.672-5.015-39.582 17.559-39.582 17.559m0 0" clip-rule="nonzero"/></clipPath><clipPath id="clip-20-2"><path id="path2480" d="M792 692h57v29h-57zm0 0" clip-rule="nonzero"/></clipPath><clipPath id="clip-21-7"><path id="path2483" d="M792.941 707.293s27.711-8.074 55.422-15.05c-.941 11.757-6.105 21.55-14.558 24.925-27.242 10.816-40.864-9.875-40.864-9.875m0 0" clip-rule="nonzero"/></clipPath><clipPath id="clip-path-94"><path id="path13576" d="M122.554 29.455c-.819 1.114-3.52 5.158-4.438 6.41l-17.45 23.776a.815.815 0 0 1-1.34.06q-.922-1.024-1.842-2.05l-5.708-6.354a.837.837 0 0 0-1.407.01Q88.183 54.163 86 57.022a.807.807 0 0 0 .07 1.18q1.848 1.906 3.697 3.81l9.806 10.102a.84.84 0 0 0 1.383-.024q2.911-3.263 5.82-6.528l8.442-9.47 9.898-11.103c.31-.348 3.225-3.708 3.535-4.056V29.455Z" class="cls-1"/></clipPath><clipPath id="clip-path-10-3"><path id="path13603" d="M113.69 90.716a14.95 14.95 0 0 0-2.594-6.646 12 12 0 0 0-4.216-3.672 13.05 13.05 0 0 0-5.31-1.45 14.4 14.4 0 0 0-3.965.239A13.57 13.57 0 0 0 87.53 88.01a15.5 15.5 0 0 0-.61 7.28 12.95 12.95 0 0 0 3.815 7.65 13.2 13.2 0 0 0 7.525 3.788 19.6 19.6 0 0 0 5.765-.066 16.7 16.7 0 0 0 7.305-2.957.736.736 0 0 0 .221-1.163q-1.07-1.57-2.141-3.137a.726.726 0 0 0-1.158-.221 11.5 11.5 0 0 1-3.645 1.702 10.9 10.9 0 0 1-4.552.33 7.15 7.15 0 0 1-5.824-5.636c-.074-.38-.025-.44.365-.44h18.385c.068 0 .137.003.205 0a.698.698 0 0 0 .739-.768 28.5 28.5 0 0 0-.235-3.656m-6.775-.337q-.102.003-.205.001H94.57c-.485 0-.573-.09-.475-.562a6.54 6.54 0 0 1 2.271-3.873 6.4 6.4 0 0 1 4.002-1.454 7 7 0 0 1 2.852.404 6.06 6.06 0 0 1 3.785 4.371 8 8 0 0 1 .132.844.21.21 0 0 1-.221.269z" class="cls-1"/></clipPath><clipPath id="clip-path-11-5"><path id="path13606" d="M70.364 106.824c-1.164.073-2.377.065-3.59.037a13 13 0 0 1-1.625-.17q-.95-.14-1.884-.355a20 20 0 0 1-2.79-.868 20.5 20.5 0 0 1-6.104-3.718.796.796 0 0 1-.12-1.138c1.033-1.443 2.082-2.876 3.09-4.336a.88.88 0 0 1 1.436-.17 15.3 15.3 0 0 0 5.391 3.213 15 15 0 0 0 2.948.719c.613.083 1.227.116 1.843.144a9.8 9.8 0 0 0 3.584-.468 5.04 5.04 0 0 0 2.132-1.29 3.03 3.03 0 0 0 .912-2.166 2.62 2.62 0 0 0-1.029-2.072 8.9 8.9 0 0 0-3.083-1.441 43 43 0 0 0-2.42-.651c-1.284-.313-2.575-.595-3.85-.946a28.4 28.4 0 0 1-3.961-1.36 14 14 0 0 1-2.667-1.517 8.7 8.7 0 0 1-2.506-2.834 9 9 0 0 1-.89-2.408 11.2 11.2 0 0 1-.19-2.895 9.6 9.6 0 0 1 .815-3.385 9.3 9.3 0 0 1 1.583-2.502 11.2 11.2 0 0 1 2.055-1.83 14 14 0 0 1 4.88-2.084 14 14 0 0 1 2.165-.336c.504-.035 1.005-.082 1.51-.086.522-.003 1.042-.072 1.565-.039a27 27 0 0 1 3.102.302 23 23 0 0 1 3.112.785 19.5 19.5 0 0 1 3.127 1.367 21 21 0 0 1 2.479 1.588c.198.145.398.29.58.452a.85.85 0 0 1-.04 1.18c-.876 1.153-1.745 2.31-2.617 3.465a10 10 0 0 1-.626.81.807.807 0 0 1-1.196.077 16.3 16.3 0 0 0-2.347-1.534 15.4 15.4 0 0 0-3.79-1.417 12.6 12.6 0 0 0-1.866-.298 15 15 0 0 0-2.418-.079 6.3 6.3 0 0 0-2.641.682 3.22 3.22 0 0 0-1.728 2.258 2.42 2.42 0 0 0 1.221 2.663 10.2 10.2 0 0 0 2.708 1.132c.785.232 1.58.433 2.375.63.97.24 1.948.443 2.915.692a30.2 30.2 0 0 1 5.277 1.783 12.9 12.9 0 0 1 2.696 1.64 9 9 0 0 1 2.23 2.616 9.1 9.1 0 0 1 .979 2.88 8 8 0 0 1 .112 1.165c.008.316.044.633.034.95a11.6 11.6 0 0 1-.905 4.314 10.1 10.1 0 0 1-1.594 2.542 10.9 10.9 0 0 1-3.71 2.76 15.9 15.9 0 0 1-3.963 1.235c-.76.138-1.528.22-2.294.31a4 4 0 0 1-.412.002z" class="cls-1"/></clipPath><clipPath id="clipPath3" clipPathUnits="userSpaceOnUse"/><pattern xlink:href="#a" id="pattern9" x="0" y="0" patternTransform="rotate(45 5.47 13.207)scale(.5)" preserveAspectRatio="xMidYMid"/><pattern xlink:href="#a" id="pattern5" x="0" y="0" patternTransform="rotate(45 -184.275 141.447)scale(.5)" preserveAspectRatio="xMidYMid"/><pattern xlink:href="#a" id="m" x="0" y="0" patternTransform="rotate(45)scale(1.65033)" preserveAspectRatio="xMidYMid"/><pattern id="a" width="2.5" height="1" patternTransform="scale(2)" patternUnits="userSpaceOnUse" preserveAspectRatio="xMidYMid" style="fill:#4ea8f1"><path id="path1" d="M0-.5h1v2H0z" style="stroke:none"/></pattern></defs><g id="layer1" transform="translate(85.196 -73.025)"><rect id="rect1" width="505.354" height="264.583" x="-85.196" y="73.025" rx="0" ry="0" style="fill:#fff;fill-opacity:1;stroke:none;stroke-width:1.32292;stroke-linecap:round;stroke-linejoin:bevel;stroke-miterlimit:0"/><text xml:space="preserve" id="text1" x="378.1" y="230.035" style="font-size:6.35px;line-height:1.25;font-family:&quot;Segoe UI&quot;;-inkscape-font-specification:&quot;Segoe UI&quot;;stroke-width:.264583"/><g id="g9" transform="translate(2.515 .014)"><path id="path20" d="M304.246 214.365H59.149s-17.525-1.703-25.01 6.354c-4.111 4.426-5.733 9.471-4.953 21.268" style="fill:none;stroke:#4ea8f1;stroke-width:1.32292;stroke-linecap:round;stroke-linejoin:miter;stroke-dasharray:2.64584,5.29168;stroke-dashoffset:1.32292;stroke-opacity:1"/><path id="path1-3" d="M328.531 169.106c-6.418-6.421-10.812-17.634-12.992-27.836-2.183 10.204-6.572 21.42-12.993 27.84-6.418 6.416-17.634 10.81-27.834 12.994 10.204 2.18 21.418 6.571 27.836 12.992 6.419 6.419 10.812 17.634 12.996 27.836 2.18-10.204 6.572-21.42 12.99-27.84s17.634-10.81 27.834-12.994c-10.202-2.18-21.416-6.574-27.837-12.992z" class="st0" style="fill:#4ea8f1;stroke:#4ea8f1;stroke-width:.260387;stroke-opacity:1"/><path id="path2" d="M347.146 237.207c-3.83-3.834-6.46-10.536-7.762-16.63-1.305 6.094-3.925 12.796-7.76 16.632-3.836 3.831-10.537 6.458-16.63 7.762 6.095 1.305 12.794 3.927 16.63 7.763 3.835 3.833 6.46 10.535 7.764 16.63 1.302-6.097 3.927-12.797 7.76-16.632 3.834-3.834 10.535-6.458 16.627-7.765-6.091-1.303-12.793-3.927-16.629-7.76" class="st0" style="fill:#4ea8f1;stroke-width:.260387"/><path id="path3-6" d="M277.073 204.473c-1.095 5.116-3.295 10.745-6.514 13.964-3.22 3.217-8.845 5.421-13.96 6.516 5.115 1.098 10.74 3.296 13.96 6.517 3.219 3.22 5.423 8.843 6.519 13.962 1.094-5.12 3.295-10.743 6.515-13.964 3.217-3.219 8.844-5.421 13.958-6.519-5.114-1.093-10.74-3.295-13.96-6.514-3.218-3.217-5.423-8.845-6.518-13.962z" class="st0" style="fill:#4ea8f1;stroke:#fff;stroke-width:8.46667;stroke-dasharray:none;paint-order:stroke fill markers"/><path id="path1-35" fill="#1d1d1b" d="M67.713 238.91c0-.412-.087-.8-.121-1.202l5.329-5.153-4.144-7.176-7.068 2.021a14 14 0 0 0-2.152-1.227l-1.788-7.15h-8.286l-1.788 7.15c-.754.352-1.478.753-2.153 1.227l-7.068-2.021-4.143 7.176 5.33 5.153c-.035.403-.122.79-.122 1.203 0 .412.087.8.121 1.203l-5.33 5.152 4.144 7.177 7.068-2.022c.675.474 1.399.875 2.153 1.227l1.788 7.15h8.286l1.788-7.15a14 14 0 0 0 2.152-1.227l7.068 2.022 4.144-7.177-5.33-5.152c.035-.404.122-.791.122-1.203zm-14.087 4.972a4.972 4.972 0 1 1 0-9.943 4.972 4.972 0 0 1 0 9.943z" style="fill:#fff;stroke:#4ea8f1;stroke-width:1.04553;stroke-linecap:round;stroke-dasharray:none;stroke-opacity:1;paint-order:normal"/><path id="path4" d="M49.061 226.518c-.237.776-1.064 1.074-1.713 1.422-.533.317-1.048.662-1.568 1l-6.638-1.903-3.038 5.268 5.064 4.896a8.9 8.9 0 0 0-.103 2.967c-.094.88-.905 1.383-1.466 1.965l-3.495 3.383 3.038 5.268 6.655-1.907a17 17 0 0 0 3.108 1.776q.84 3.37 1.683 6.737h6.075l1.684-6.734c1.087-.495 2.141-1.071 3.106-1.78l6.657 1.908 3.037-5.268-5.064-4.895a8.8 8.8 0 0 0 .105-2.949c.079-.875.878-1.388 1.44-1.961l3.519-3.406-3.037-5.268-6.656 1.907c-.967-.705-2.02-1.285-3.107-1.78l-1.683-6.733h-6.082zm4.542 6.006c3.064-.062 5.954 2.413 6.345 5.457.344 2.252-.644 4.627-2.447 6.01-1.844 1.46-4.516 1.69-6.624.68-2.054-.921-3.457-3.045-3.612-5.276a6.23 6.23 0 0 1 1.595-4.724c1.189-1.336 2.948-2.16 4.743-2.147" style="fill:url(#pattern5);fill-opacity:1;stroke:none;stroke-width:.425841;stroke-linecap:round;stroke-dasharray:none;stroke-opacity:1;paint-order:normal"/><circle id="path14-9" cx="53.626" cy="238.911" r=".686" style="fill:#4ea8f1;fill-opacity:1;stroke:#4ea8f1;stroke-width:.522766;stroke-linecap:round;stroke-linejoin:round;stroke-miterlimit:0;stroke-dasharray:none;stroke-dashoffset:0;stroke-opacity:1;paint-order:normal"/><text xml:space="preserve" id="text21" x="131.999" y="202.683" style="font-size:35.8325px;line-height:1.25;font-family:&quot;Segoe UI&quot;;-inkscape-font-specification:&quot;Segoe UI&quot;;fill:#4ea8f1;fill-opacity:1;stroke-width:1.49302"><tspan id="tspan21" x="131.999" y="202.683" style="font-style:normal;font-variant:normal;font-weight:700;font-stretch:normal;font-family:&quot;Segoe UI&quot;;-inkscape-font-specification:&quot;Segoe UI Bold&quot;;fill:#4ea8f1;fill-opacity:1;stroke-width:1.49302">LLM</tspan></text><text xml:space="preserve" id="text22" x="108.746" y="252.132" style="font-size:35.8325px;line-height:1.25;font-family:&quot;Segoe UI&quot;;-inkscape-font-specification:&quot;Segoe UI&quot;;fill:#4ea8f1;fill-opacity:1;stroke-width:1.49302"><tspan id="tspan22" x="108.746" y="252.132" style="font-style:normal;font-variant:normal;font-weight:700;font-stretch:normal;font-family:&quot;Segoe UI&quot;;-inkscape-font-specification:&quot;Segoe UI Bold&quot;;fill:#4ea8f1;fill-opacity:1;stroke-width:1.49302">Agents</tspan></text><path id="path5" d="M325.281 172.356c-4.813-4.814-8.107-13.222-9.742-20.872-1.637 7.652-4.928 16.061-9.743 20.876-4.813 4.811-13.223 8.105-20.871 9.744 7.651 1.634 16.06 4.927 20.873 9.742 4.813 4.813 8.107 13.222 9.745 20.872 1.634-7.651 4.928-16.061 9.74-20.876 4.813-4.813 13.223-8.105 20.872-9.744-7.65-1.634-16.059-4.928-20.874-9.742" class="st0" style="fill:#fff;stroke:none;stroke-width:.195252;stroke-opacity:1"/><path id="path7" d="M344.443 239.91c-2.497-2.498-4.21-6.866-5.059-10.837-.85 3.971-2.558 8.34-5.058 10.839-2.5 2.497-6.866 4.209-10.837 5.059 3.972.85 8.338 2.56 10.837 5.059s4.21 6.866 5.061 10.838c.849-3.973 2.56-8.34 5.057-10.84 2.499-2.498 6.867-4.208 10.837-5.06-3.97-.849-8.338-2.56-10.838-5.058" class="st0" style="fill:#fff;fill-opacity:1;stroke-width:.169701"/><path id="path6" d="M277.074 211.21c-.735 3.433-2.212 7.21-4.372 9.37s-5.935 3.638-9.368 4.373c3.433.737 7.208 2.212 9.368 4.373s3.64 5.934 4.375 9.37c.734-3.436 2.211-7.21 4.372-9.371 2.159-2.16 5.935-3.638 9.367-4.375-3.432-.734-7.208-2.211-9.368-4.371s-3.64-5.936-4.374-9.37" class="st0" style="fill:#fff;stroke:none;stroke-width:5.68165;stroke-dasharray:none;paint-order:stroke fill markers"/><g id="g4" style="fill:#4ea8f1;fill-opacity:1" transform="translate(-36.412 145.639)scale(.21466)"><g id="g3" style="fill:#4ea8f1;fill-opacity:1"><path id="path1-36" d="M204.27 232.439h1.2c104.4-1.1 89.2-140.4 89.2-140.4-4.3-93.1-82.2-92.3-89.8-92-7.7-.3-85.6-1.1-89.8 92 0 0-15.1 139.3 89.2 140.4" style="fill:#4ea8f1;fill-opacity:1"/><path id="path2-7" d="M382.47 301.839c-7.3-11-18.1-19.2-34.4-25.1-47.2-18-75.5-36.5-75.5-36.5l-36.4 115-5 15.6-16.3-46.2c37.4-52.2-2.8-54.7-9.8-54.8h-.4c-7 .1-47.2 2.5-9.8 54.8l-16.3 46.2-5-15.6-36.4-115s-28.3 18.5-75.5 36.5c-51.9 18.9-48.7 61.7-49.7 141.9h275.7c-.3-3.4-.5-6.8-.5-10.3 0-55.1 41.8-100.6 95.3-106.5" style="fill:#4ea8f1;fill-opacity:1"/></g></g><path id="path1-2" d="M6.457 146.766c-5.14.228-10.508 2.525-13.484 6.915-2.832 3.997-3.54 9.047-3.654 13.88-.2 6.279.572 12.758 3.501 18.377 1.92 3.626 5.183 6.605 9.162 7.764 3.433 1.062 7.22 1.065 10.748.183 3.746-.978 7.032-3.458 9.046-6.76 3.025-4.787 3.987-10.534 4.21-16.108.141-4.207-.119-8.434-1.286-12.477-1.23-3.953-3.86-7.502-7.553-9.492-3.235-1.803-7.02-2.44-10.69-2.282" style="fill:#fff;fill-opacity:1;stroke-width:.214662"/><path id="path8" d="M6.61 147.818c-4.549.211-9.17 2-12.101 5.6-2.436 2.974-3.565 6.825-3.887 10.537-.549 5.44-.326 10.992 1.091 16.28 1.204 4.315 3.465 8.66 7.425 11.025 3.534 2.178 8.027 2.6 12.055 1.878 3.6-.64 6.942-2.661 9.054-5.665 3.184-4.385 4.232-9.87 4.615-15.15.22-3.955.076-7.994-.75-11.816-.804-3.718-2.801-7.311-5.945-9.555-3.31-2.406-7.52-3.29-11.556-3.134" style="fill:url(#pattern9);fill-opacity:1;stroke-width:.214662"/></g></g><style id="style1" type="text/css">.st0{fill:#000}</style></svg>